<?xml version="1.0" standalone="no"?>
<!DOCTYPE svg PUBLIC "-//W3C//DTD SVG 20010904//EN"
 "http://www.w3.org/TR/2001/REC-SVG-20010904/DTD/svg10.dtd">
<svg version="1.0" xmlns="http://www.w3.org/2000/svg"
 width="731.000000pt" height="1031.000000pt" viewBox="0 0 731.000000 1031.000000"
 preserveAspectRatio="xMidYMid meet">

<g transform="translate(0.000000,1031.000000) scale(0.100000,-0.100000)"
fill="#000000" stroke="none">
<path d="M3684 10016 c-17 -13 -17 -19 -7 -58 11 -42 10 -150 -3 -326 -5 -57
-10 -74 -25 -82 -19 -11 -27 -60 -10 -60 19 0 22 -41 5 -68 -22 -36 -50 -62
-66 -63 -7 0 0 -5 15 -9 16 -5 36 -6 44 -3 13 5 15 2 9 -18 -12 -40 -35 -279
-36 -366 0 -46 -3 -83 -7 -83 -5 0 -22 9 -40 19 -17 11 -49 23 -70 27 -34 6
-76 19 -138 44 -11 4 -81 27 -155 51 -74 24 -145 49 -157 57 -14 9 -33 11 -53
7 -57 -13 -29 -85 34 -85 46 0 74 -216 42 -324 -8 -26 -12 -62 -9 -80 3 -20 1
-36 -6 -40 -6 -4 -11 -18 -11 -31 0 -13 -4 -27 -10 -30 -5 -3 -10 -14 -10 -24
0 -56 -85 -261 -145 -349 -34 -50 -154 -172 -179 -182 -40 -16 10 -11 87 9
174 45 375 64 532 50 61 -6 117 -13 125 -16 8 -4 20 -5 26 -4 18 2 64 -17 64
-27 0 -21 -51 -63 -69 -57 -10 3 -24 -1 -31 -10 -7 -8 -23 -15 -36 -15 -27 0
-44 -26 -44 -68 0 -21 13 -42 45 -75 69 -71 58 -83 -44 -48 -31 10 -76 24
-101 30 -25 7 -74 21 -110 31 -78 22 -140 39 -260 70 -25 7 -56 16 -70 20 -14
4 -60 16 -102 25 -43 9 -83 23 -89 31 -6 8 -23 14 -38 14 -48 0 -116 26 -115
44 2 21 -4 20 -51 -4 -22 -11 -45 -20 -52 -20 -7 0 -13 -7 -13 -15 0 -21 92
-86 105 -74 14 14 41 11 55 -6 10 -12 9 -16 -4 -21 -9 -3 -16 -12 -16 -20 0
-18 29 -18 36 0 3 8 12 17 20 20 15 6 129 -15 184 -33 33 -11 93 -27 155 -41
146 -33 149 -35 120 -74 -15 -20 -16 -20 -108 3 -50 13 -105 27 -122 31 -16 5
-50 14 -75 20 -25 7 -71 22 -102 35 -32 13 -58 21 -58 19 0 -3 7 -19 16 -35
33 -65 113 -301 124 -371 21 -123 16 -424 -9 -556 -24 -122 -68 -271 -127
-430 -94 -253 -288 -579 -412 -693 -62 -56 -170 -119 -206 -119 -9 0 -13 -6
-10 -14 7 -17 -23 -66 -40 -66 -7 0 -23 11 -36 25 -28 30 -80 58 -80 44 0 -6
4 -19 10 -29 12 -22 3 -50 -16 -50 -8 0 -14 10 -14 26 0 22 -3 25 -22 20 -13
-3 -40 -9 -60 -12 -46 -8 -58 11 -33 50 16 24 16 26 0 26 -9 0 -30 -11 -47
-25 -53 -45 -87 -28 -90 45 -1 43 -2 43 -5 8 -4 -33 -8 -38 -29 -38 -34 0 -68
36 -59 63 31 89 1 229 -48 235 -24 3 -26 1 -20 -31 3 -19 -2 -64 -11 -100 -18
-72 -14 -112 15 -140 11 -10 19 -22 19 -27 0 -16 -26 -11 -42 8 -30 35 -41 81
-35 150 4 49 2 74 -8 92 -21 37 -18 50 11 50 14 0 23 4 19 10 -3 6 -15 10 -26
10 -10 0 -27 4 -37 8 -87 43 -378 124 -420 118 -79 -12 -80 -45 -4 -118 31
-31 67 -68 79 -83 26 -31 52 -30 64 2 7 19 3 25 -22 39 -44 22 -35 49 16 47
79 -4 116 -15 150 -47 56 -53 55 -84 -7 -212 -69 -140 -123 -268 -136 -319
-33 -129 -20 -268 41 -415 33 -80 42 -93 173 -226 77 -78 158 -157 181 -177
26 -21 38 -37 30 -40 -15 -6 -192 59 -227 83 -14 10 -48 26 -77 36 -45 16 -60
17 -107 7 -30 -6 -83 -25 -118 -42 -62 -30 -67 -31 -188 -29 -113 3 -134 0
-218 -25 -91 -28 -97 -29 -270 -24 -108 3 -146 2 -97 -2 44 -4 105 -15 135
-23 64 -18 170 -31 256 -32 45 -1 60 -4 57 -14 -4 -8 5 -12 27 -12 29 0 31 2
19 16 -12 14 -8 16 32 13 24 -1 51 -6 60 -10 9 -5 41 -5 70 -2 49 6 52 7 26
16 -28 9 -34 21 -17 32 6 3 50 -8 99 -24 148 -50 371 -73 473 -47 35 9 77 16
94 16 52 -1 -94 -57 -177 -67 -102 -13 -209 -5 -209 16 0 5 -19 12 -42 16 -54
9 -120 15 -90 9 12 -3 22 -9 22 -14 0 -4 17 -11 37 -15 40 -7 82 -30 148 -80
52 -39 108 -59 220 -76 63 -10 107 -12 145 -6 37 6 70 5 106 -3 75 -18 138 -6
204 40 74 49 114 70 140 70 12 0 34 7 50 15 56 29 215 20 250 -15 7 -7 150
-77 185 -90 46 -18 135 -32 193 -30 28 0 52 -3 52 -9 0 -15 -25 -17 -141 -9
-119 7 -168 24 -247 82 -26 18 -64 41 -86 50 -43 18 -91 21 -81 6 3 -6 18 -10
33 -10 17 0 22 -3 15 -8 -7 -5 -37 -5 -67 -2 -29 3 -66 2 -81 -2 -37 -9 -78
-50 -95 -93 -8 -20 -24 -38 -39 -44 -50 -18 -161 -33 -258 -34 -87 0 -110 4
-203 35 -58 20 -127 39 -154 43 -45 6 -49 5 -37 -9 21 -25 71 -46 110 -46 20
0 61 -9 91 -21 40 -15 86 -21 169 -24 102 -4 118 -7 152 -30 21 -14 43 -25 49
-25 17 0 110 -97 110 -115 0 -8 4 -23 9 -33 17 -33 79 -195 103 -267 20 -64
17 -314 -6 -400 -24 -91 -17 -157 21 -197 33 -34 66 -36 97 -5 38 38 41 86 11
169 -33 92 -49 154 -65 243 -6 39 -16 89 -21 112 -5 23 -9 66 -9 95 0 51 -19
161 -36 203 -11 29 -92 151 -109 165 -8 7 -15 21 -15 31 0 15 7 19 34 19 19 0
37 -4 40 -9 3 -4 27 -14 53 -20 84 -21 127 -34 169 -52 40 -17 43 -17 74 2
l32 20 63 -30 c35 -17 68 -31 74 -31 18 0 96 -48 94 -57 -3 -10 -2 -10 -76 1
-91 12 -150 -6 -214 -67 -43 -40 -54 -46 -59 -33 -7 19 18 60 58 94 34 29 25
47 -19 38 -59 -13 -115 -199 -83 -276 15 -36 34 -27 44 20 9 47 39 39 65 -15
12 -25 21 -53 21 -64 0 -29 11 -51 25 -51 19 0 26 26 15 56 -15 39 -12 100 6
115 9 7 36 13 62 13 l46 1 14 -50 c13 -42 13 -64 2 -140 -6 -49 -16 -94 -20
-100 -12 -16 -20 -62 -14 -79 7 -19 38 -21 52 -4 5 7 13 79 17 159 7 146 15
183 34 164 9 -9 17 -36 41 -135 17 -75 52 -156 78 -186 15 -17 58 -46 97 -66
77 -39 82 -48 84 -140 1 -71 17 -84 27 -21 9 66 21 93 39 93 16 0 45 -59 45
-92 0 -35 30 -78 65 -92 35 -15 38 -24 47 -131 4 -44 22 -32 26 16 3 45 27 89
46 89 15 0 91 -72 128 -120 23 -30 28 -47 30 -110 3 -79 19 -98 28 -33 5 36 7
38 44 41 54 5 87 -30 116 -119 17 -56 21 -87 18 -166 -2 -54 -7 -106 -12 -115
-7 -15 -3 -18 17 -18 22 0 25 5 31 53 3 28 6 79 6 112 l1 60 19 -40 c10 -22
26 -57 34 -77 20 -50 46 -50 80 2 29 45 33 79 23 230 -3 52 -4 110 0 128 7 40
33 43 34 5 8 -201 6 -302 -3 -331 -7 -17 -15 -32 -19 -32 -4 0 -9 -9 -12 -20
-3 -11 -18 -25 -34 -31 -83 -34 -99 -43 -110 -57 -18 -22 -17 -175 1 -210 15
-28 50 -62 64 -62 5 0 18 -10 31 -21 34 -32 44 -13 53 104 10 133 18 186 29
193 5 3 9 -47 9 -115 0 -109 -9 -181 -30 -236 -16 -41 -29 -82 -50 -155 -12
-41 -26 -83 -31 -92 -5 -10 -9 -29 -9 -42 0 -14 -4 -27 -9 -30 -10 -6 -19 -52
-27 -131 -4 -33 -1 -59 9 -78 11 -20 13 -46 10 -87 -5 -55 -4 -59 22 -76 26
-17 28 -17 40 0 11 14 10 29 -6 84 -10 37 -19 81 -19 97 0 42 34 130 73 190
l32 50 -3 125 c-2 117 10 211 30 234 4 6 8 57 8 114 0 111 9 160 43 230 20 42
57 75 57 52 0 -10 -33 -156 -46 -205 -3 -11 -9 -54 -12 -96 -5 -56 -4 -75 5
-72 22 9 34 57 54 228 5 44 14 109 19 145 6 36 14 101 19 145 13 108 19 132
46 191 13 28 26 73 30 100 l7 49 -20 -36 c-12 -20 -28 -63 -37 -95 -23 -81
-76 -226 -90 -244 -6 -8 -17 -27 -25 -42 -7 -16 -17 -28 -22 -28 -14 0 -9 28
11 62 19 34 42 99 81 228 28 91 112 267 146 303 13 14 24 32 24 40 0 7 4 17 9
23 5 5 11 20 14 34 3 19 5 17 6 -11 0 -19 -4 -40 -9 -45 -6 -6 -8 -19 -4 -28
6 -15 14 -9 51 33 30 34 52 51 68 51 13 0 27 5 30 10 9 15 25 12 25 -4 0 -8 6
-17 13 -19 9 -4 9 -6 0 -6 -7 -1 -29 -17 -50 -36 -21 -19 -45 -37 -53 -40 -18
-6 -64 -74 -56 -83 3 -3 6 0 6 6 0 19 35 14 55 -8 37 -41 87 -18 120 57 34 78
40 89 63 126 35 59 45 39 37 -73 -3 -54 -3 -100 2 -103 19 -12 31 10 36 68 11
110 20 157 31 160 6 2 32 6 58 10 l47 6 -5 -93 -4 -93 16 65 c8 36 20 90 26
120 6 30 14 60 18 65 3 6 23 49 44 98 27 62 44 87 56 87 30 0 44 -52 37 -138
-6 -67 2 -116 16 -102 3 3 10 44 16 91 10 83 33 144 68 179 13 13 21 8 73 -50
32 -35 62 -61 66 -57 5 4 2 17 -5 29 -11 17 -11 22 0 29 8 4 45 30 83 58 38
28 77 51 87 51 13 0 20 13 28 50 18 86 15 113 -16 128 -16 6 -44 26 -63 43
-33 29 -38 31 -93 24 -58 -6 -72 -10 -154 -46 -24 -11 -53 -18 -65 -18 -21 1
-21 2 -3 6 11 3 22 9 25 13 3 3 47 26 98 50 71 32 108 43 151 44 33 2 76 11
102 23 24 12 67 26 96 32 77 16 193 72 193 94 0 9 -6 17 -14 17 -7 0 -20 7
-27 16 -7 9 -37 27 -66 41 -47 23 -52 27 -47 52 5 21 1 29 -20 41 -32 16 -45
6 -27 -21 7 -12 10 -23 8 -25 -10 -11 -145 20 -191 43 -47 24 -53 25 -105 12
-31 -7 -91 -32 -134 -56 -82 -44 -112 -54 -116 -39 -1 5 24 20 55 33 32 13 60
27 63 31 12 15 115 85 147 98 59 25 170 18 274 -16 102 -34 183 -70 176 -78
-3 -2 -25 1 -50 8 -82 23 -92 -16 -13 -57 47 -25 62 -27 167 -27 98 -1 135 4
245 32 72 18 144 38 160 44 51 19 169 79 190 98 11 9 27 20 35 24 15 6 2 5
-125 -11 -105 -13 -186 -8 -251 15 -33 12 -75 22 -93 22 -18 0 -47 7 -64 15
-18 8 -48 16 -67 18 -27 3 -23 4 16 5 28 1 76 7 107 13 48 10 64 9 109 -6 70
-23 174 -22 225 3 41 20 73 19 73 -3 0 -15 35 -39 69 -48 14 -3 58 3 99 14 85
23 312 45 421 41 48 -2 78 2 89 10 13 11 3 14 -59 18 -41 3 -74 10 -74 15 0
17 120 26 182 14 32 -7 128 -13 213 -14 110 -2 135 0 85 5 -38 4 -137 15 -218
26 -117 14 -152 15 -168 6 -47 -29 -274 -5 -390 42 -74 31 -128 41 -148 27
-16 -11 -6 -31 16 -31 8 0 36 -11 62 -24 25 -13 72 -34 104 -47 31 -12 57 -27
57 -32 0 -9 -19 -8 -190 10 -42 4 -63 12 -89 35 -29 25 -39 29 -70 24 -92 -17
-109 -17 -116 -6 -9 15 17 33 73 50 26 7 58 19 72 27 l25 13 -27 0 c-45 0
-179 -50 -230 -86 -26 -19 -66 -37 -89 -40 l-42 -7 79 80 c49 49 102 117 140
179 67 108 137 237 146 269 4 11 16 47 29 80 33 90 53 199 89 475 14 109 25
154 55 225 59 137 76 158 122 153 27 -3 28 -6 33 -63 4 -53 6 -57 13 -30 5 17
16 38 24 48 9 9 13 20 9 24 -4 4 -12 1 -17 -7 -7 -10 -8 4 -3 44 4 35 3 61 -3
65 -6 3 -13 18 -17 33 -5 22 1 36 36 76 43 49 176 154 203 160 8 2 15 -4 15
-12 0 -9 -4 -16 -9 -16 -5 0 -11 -8 -14 -17 -6 -20 -38 -75 -48 -83 -11 -9
-29 -48 -29 -62 0 -13 39 31 40 45 0 5 41 68 90 141 50 74 90 139 90 145 0 17
-28 13 -108 -14 -90 -31 -105 -31 -179 -3 -98 38 -133 82 -320 403 -82 140
-104 180 -180 324 -61 116 -118 218 -166 296 -48 78 -254 352 -328 435 -79 89
-294 303 -329 327 -14 9 -50 39 -81 67 -30 28 -82 71 -115 96 -32 25 -70 56
-84 70 -14 14 -54 50 -90 80 -36 30 -67 58 -70 61 -16 19 -213 169 -221 169
-23 0 42 -64 135 -133 73 -55 217 -200 206 -207 -6 -4 -4 -14 5 -26 14 -18 14
-18 15 5 l0 24 25 -23 c31 -29 33 -45 3 -29 l-21 11 21 -28 c11 -16 35 -42 52
-59 109 -101 290 -362 380 -545 17 -36 40 -83 51 -104 22 -43 39 -142 20 -116
-14 20 -14 14 4 -44 16 -53 20 -96 7 -96 -8 0 -21 30 -52 120 -53 151 -172
397 -248 508 -57 83 -125 173 -211 277 -101 121 -96 112 -80 132 12 15 12 16
-4 10 -10 -4 -16 -3 -13 2 6 9 -103 106 -111 98 -3 -3 4 -18 15 -34 18 -26 33
-50 80 -135 10 -18 29 -60 41 -93 13 -33 27 -69 31 -80 5 -11 13 -36 19 -55 6
-19 22 -69 35 -110 24 -73 79 -275 98 -355 40 -172 53 -647 23 -861 -17 -121
-43 -234 -56 -249 -5 -5 -9 -23 -9 -40 -1 -30 -40 -158 -53 -172 -4 -3 -7 -12
-7 -20 0 -17 -42 -107 -52 -111 -4 -2 -8 -8 -8 -13 0 -19 -66 -108 -84 -113
-16 -4 -17 0 -12 27 20 117 26 272 17 444 -6 101 -13 188 -16 193 -3 5 -1 11
3 14 5 3 1 31 -9 63 -10 32 -34 112 -53 178 -20 66 -42 141 -50 167 -13 43
-13 48 3 62 10 9 42 19 70 23 59 7 65 12 51 47 -7 19 -17 26 -37 26 -16 0 -40
8 -56 18 -29 20 -132 125 -152 157 -9 13 -16 73 -19 165 -10 229 -40 452 -87
650 -5 25 -13 59 -15 75 -3 17 -9 39 -14 50 -10 23 -20 77 -23 120 l-2 30 67
5 c63 5 66 6 55 25 -8 14 -24 21 -51 22 -21 2 -44 6 -50 11 -6 5 -65 28 -131
51 -66 24 -147 54 -180 66 -33 12 -76 26 -95 30 -19 4 -42 13 -50 20 -8 7 -28
15 -44 19 -17 4 -46 15 -65 24 -20 9 -47 19 -61 22 l-25 5 0 187 c0 136 3 190
13 200 6 6 12 34 12 61 0 41 2 47 14 38 10 -8 16 -8 24 2 8 10 4 21 -18 47
-33 39 -36 56 -15 84 22 29 18 51 -10 66 -23 12 -26 19 -23 59 l3 46 100 6
c58 3 122 13 153 24 44 15 58 16 91 7 21 -7 61 -12 88 -12 42 0 58 6 107 41
57 41 96 51 147 36 44 -12 45 18 1 39 -32 15 -43 15 -87 5 -76 -19 -136 -24
-147 -13 -6 6 5 12 32 16 46 7 89 27 114 52 29 29 6 33 -42 8 -62 -34 -113
-28 -191 20 -100 61 -191 69 -305 25 -27 -10 -53 -16 -58 -13 -11 7 -10 47 1
60 4 5 11 21 15 36 8 35 -21 55 -50 34z m67 -208 c2 -30 -2 -62 -7 -67 -13
-13 -25 21 -19 53 8 40 24 49 26 14z m169 3 c0 -11 -25 -21 -55 -21 -25 0 -39
12 -28 24 10 9 83 7 83 -3z m-752 -843 c18 -18 14 -28 -10 -28 -23 1 -58 21
-58 34 0 11 56 6 68 -6z m57 -38 c3 -5 2 -10 -4 -10 -5 0 -13 5 -16 10 -3 6
-2 10 4 10 5 0 13 -4 16 -10z m-45 -49 c0 -9 12 -48 26 -86 29 -78 54 -185 54
-228 0 -32 -17 -33 -34 -2 -6 11 -17 25 -23 33 -7 7 -13 37 -13 67 0 45 -13
128 -38 235 -5 22 -3 24 11 11 10 -7 17 -21 17 -30z m219 -1 c68 -22 127 -40
131 -40 4 0 24 -7 45 -16 52 -21 33 -40 -27 -26 -57 14 -250 82 -265 94 -11 9
-18 28 -10 28 1 0 58 -18 126 -40z m366 -126 c68 -14 145 -47 145 -62 0 -18
-18 -14 -124 25 -44 16 -82 35 -84 42 -3 9 2 11 14 8 11 -4 33 -9 49 -13z
m250 -74 c64 -25 85 -31 135 -39 66 -11 170 -49 170 -62 0 -16 -57 -10 -172
20 -185 49 -188 50 -198 77 -14 35 -13 35 18 23 15 -7 36 -15 47 -19z m-490
-100 c17 -66 16 -168 -4 -235 l-9 -30 -1 35 c-3 85 -13 85 -41 -2 -15 -46 -35
-99 -43 -118 -15 -32 -16 -33 -16 -10 -1 14 6 50 14 80 21 77 20 90 -9 90 -25
0 -39 20 -30 43 6 17 -31 52 -40 38 -12 -18 -36 1 -36 28 0 39 14 55 43 47 17
-4 26 -15 31 -37 3 -18 8 -30 10 -28 74 80 96 116 96 153 1 52 12 34 35 -54z
m805 -115 c9 -21 16 -59 26 -137 8 -59 -10 -65 -26 -10 -11 38 -25 209 -14
182 3 -8 9 -24 14 -35z m-933 -297 c-3 -7 -5 -2 -5 12 0 14 2 19 5 13 2 -7 2
-19 0 -25z m173 -222 c0 -14 -27 -42 -34 -35 -2 2 0 14 5 27 9 24 29 30 29 8z
m-20 -92 c0 -8 -7 -14 -16 -14 -10 0 -14 -6 -11 -14 7 -18 -19 -54 -30 -42 -4
5 -2 11 5 13 6 3 12 11 12 19 0 19 -39 18 -46 -1 -8 -20 -33 -19 -41 0 -7 20
24 44 57 45 14 0 32 4 40 9 17 12 30 5 30 -15z m50 16 c0 -5 -4 -10 -9 -10 -6
0 -13 5 -16 10 -3 6 1 10 9 10 9 0 16 -4 16 -10z m406 -55 c190 -89 464 -314
464 -381 0 -22 3 -25 23 -20 18 4 33 -5 70 -42 26 -27 45 -51 42 -54 -3 -2
-27 1 -53 7 -40 10 -47 16 -50 39 -4 28 -22 37 -22 10 0 -23 -48 -14 -187 32
-114 38 -158 58 -181 80 -21 22 -37 16 -17 -6 16 -17 16 -20 2 -20 -47 0 -94
34 -168 122 l-40 47 21 57 c24 69 25 107 5 128 -19 19 -19 36 0 36 9 0 50 -16
91 -35z m-601 -4 c-9 -16 -25 -3 -18 15 4 10 9 12 15 6 6 -6 7 -15 3 -21z
m-299 -140 c16 -5 49 -14 74 -21 140 -40 240 -77 240 -91 0 -4 3 -14 6 -23 5
-12 -1 -16 -24 -16 -17 0 -41 4 -54 9 -13 5 -57 19 -98 30 -160 45 -210 64
-215 82 -12 37 13 48 71 30z m777 -70 c86 -71 147 -151 87 -113 -11 7 -26 12
-34 12 -17 0 -86 69 -86 86 0 7 -5 14 -12 16 -6 2 -8 10 -4 16 8 13 17 10 49
-17z m-50 -28 c23 -28 34 -49 27 -51 -7 -3 -17 1 -23 7 -6 6 -18 11 -27 11
-17 0 -40 38 -40 65 0 28 25 15 63 -32z m-323 -48 c0 -27 -9 -32 -28 -13 -18
18 -14 38 8 38 15 0 20 -7 20 -25z m202 -47 c-9 -9 -15 -9 -24 0 -9 9 -7 12
12 12 19 0 21 -3 12 -12z m-921 -66 c28 -44 38 -82 21 -82 -11 0 -72 105 -72
125 0 24 18 9 51 -43z m338 -70 c8 -26 17 -51 21 -57 11 -14 60 -161 70 -210
5 -22 15 -69 23 -105 30 -136 30 -354 -2 -460 l-10 -35 3 45 c4 58 -14 121
-34 118 -9 -2 -16 -17 -18 -41 -4 -46 -22 -49 -20 -3 1 19 -5 48 -11 65 -8 18
-11 48 -7 73 3 24 10 100 14 170 5 71 12 131 15 135 4 3 7 -9 7 -29 0 -43 18
-98 32 -98 38 0 -50 344 -123 482 -5 10 -9 23 -9 30 1 24 36 -33 49 -80z m746
78 c3 -5 19 -10 35 -10 16 0 32 -4 35 -10 3 -5 17 -10 30 -10 13 0 27 -4 30
-10 3 -5 19 -10 34 -10 23 0 30 -5 33 -25 6 -28 5 -29 -22 -15 -11 6 -29 15
-40 20 -11 6 -31 10 -45 10 -14 0 -25 5 -25 10 0 6 -9 10 -19 10 -11 0 -23 5
-26 10 -3 6 -17 10 -31 10 -15 0 -24 6 -24 15 0 17 25 20 35 5z m-357 -72 c54
-116 93 -275 106 -433 7 -81 -8 -49 -24 50 -16 105 -64 304 -81 337 -5 10 -9
27 -9 38 0 11 -4 20 -10 20 -5 0 -10 7 -10 15 0 24 7 18 28 -27z m732 -22 c92
-24 141 -37 170 -47 14 -4 41 -11 60 -14 73 -13 78 -17 61 -44 -7 -11 -16 -11
-57 2 -27 8 -98 25 -159 38 -128 26 -163 39 -190 69 l-20 23 35 -6 c19 -2 64
-12 100 -21z m-1423 -38 c-3 -7 -5 -2 -5 12 0 14 2 19 5 13 2 -7 2 -19 0 -25z
m20 -50 c-3 -7 -5 -2 -5 12 0 14 2 19 5 13 2 -7 2 -19 0 -25z m1762 -25 c-15
-18 -34 -1 -25 22 5 14 9 15 21 5 12 -10 13 -16 4 -27z m-1742 -60 c-3 -10 -5
-4 -5 12 0 17 2 24 5 18 2 -7 2 -21 0 -30z m20 -130 c-2 -16 -4 -3 -4 27 0 30
2 43 4 28 2 -16 2 -40 0 -55z m1630 55 c-3 -8 -6 -5 -6 6 -1 11 2 17 5 13 3
-3 4 -12 1 -19z m20 -60 c-3 -7 -5 -2 -5 12 0 14 2 19 5 13 2 -7 2 -19 0 -25z
m-240 -40 c-3 -8 -6 -5 -6 6 -1 11 2 17 5 13 3 -3 4 -12 1 -19z m284 -88 c20
-98 39 -258 37 -320 -1 -43 -3 -51 -5 -25 -2 22 -8 49 -13 60 -5 11 -11 61
-14 110 -3 50 -10 115 -15 145 -6 30 -13 75 -16 100 -4 44 -4 45 6 10 6 -19
14 -55 20 -80z m-264 33 c-3 -10 -5 -4 -5 12 0 17 2 24 5 18 2 -7 2 -21 0 -30z
m-867 -200 c-6 -45 -17 -97 -26 -115 -16 -36 -16 -34 3 242 l7 95 13 -70 c11
-54 11 -88 3 -152z m-326 84 c-3 -67 -17 -103 -36 -91 -11 7 -48 -24 -48 -40
0 -6 -10 -22 -21 -36 l-20 -25 7 25 c4 13 10 49 15 80 11 77 25 140 34 148 3
4 12 -1 19 -11 18 -24 26 -21 26 7 0 13 3 33 7 43 12 30 20 -21 17 -100z
m-131 -4 c-4 -37 -9 -57 -11 -43 -2 13 -10 29 -18 35 -17 13 -33 81 -16 71 7
-4 12 -14 12 -22 0 -8 5 -12 10 -9 6 3 10 21 10 38 1 26 2 29 11 15 6 -11 7
-44 2 -85z m628 -215 c-8 -29 -9 -24 -10 38 -1 39 2 107 7 150 l7 79 3 -117
c1 -65 -2 -132 -7 -150z m918 90 c0 -28 -2 -30 -9 -13 -12 28 -12 45 0 45 6 0
10 -15 9 -32z m18 -75 c-3 -10 -5 -2 -5 17 0 19 2 27 5 18 2 -10 2 -26 0 -35z
m1287 -54 c91 -17 368 -85 401 -99 11 -4 36 -13 55 -20 101 -35 231 -100 224
-111 -3 -6 -16 -14 -27 -19 -12 -5 -49 -25 -82 -45 -33 -20 -68 -38 -77 -42
-10 -3 -18 -9 -18 -14 0 -5 -5 -9 -10 -9 -10 0 -87 -32 -122 -51 -22 -11 -285
-12 -292 0 -10 16 -98 22 -110 8 -10 -12 -32 -20 -131 -48 -16 -5 -57 -18 -91
-29 -33 -11 -73 -20 -88 -20 -19 0 -29 -6 -33 -20 -3 -11 -12 -20 -21 -20 -20
0 -124 -35 -177 -60 -43 -20 -121 -49 -305 -112 -63 -22 -125 -46 -136 -53
-12 -8 -37 -44 -56 -82 -65 -127 -83 -157 -116 -190 -18 -18 -41 -33 -52 -33
-10 0 -22 -4 -25 -10 -3 -5 -22 -10 -41 -10 -43 0 -44 17 -5 73 75 110 201
353 201 388 0 29 15 54 79 134 31 39 76 96 100 128 24 31 69 80 100 108 96 88
258 189 301 189 9 0 20 3 23 7 13 12 142 52 172 53 17 1 39 5 50 10 29 13 239
12 309 -1z m620 -320 c-9 -10 -22 -19 -27 -19 -6 0 -18 -6 -26 -14 -35 -30
-111 -65 -152 -69 -24 -2 -36 -2 -26 0 9 2 17 8 17 12 0 7 101 61 114 61 3 0
26 13 52 30 50 31 77 31 48 -1z m-436 -115 l24 -5 -24 -18 c-12 -10 -36 -21
-53 -25 -80 -18 -119 -26 -121 -23 -2 1 -6 22 -10 45 l-7 43 84 -6 c46 -4 95
-8 107 -11z m-218 -14 c6 -12 10 -35 8 -52 -2 -25 -10 -33 -42 -46 -45 -18
-56 -9 -56 50 0 33 4 40 33 52 43 19 45 19 57 -4z m370 -5 c-38 -23 -91 -45
-107 -45 -8 0 -33 -9 -55 -20 -23 -11 -50 -20 -59 -20 -10 0 -21 -4 -24 -10
-3 -5 -15 -10 -26 -10 -10 0 -27 -4 -37 -9 -61 -31 -129 -61 -140 -61 -6 0
-12 -4 -12 -9 0 -5 -9 -7 -21 -4 -11 3 -30 1 -42 -5 -37 -18 -142 -52 -158
-51 -8 1 -5 4 6 8 11 4 50 21 88 39 37 18 74 32 82 32 8 0 29 8 47 18 18 9 51
23 73 30 22 7 49 17 60 22 71 29 129 50 140 50 6 0 43 13 81 29 38 16 83 30
99 30 l30 0 -25 -14z m210 11 c0 -3 -46 -64 -69 -92 -9 -11 -105 -207 -146
-298 -31 -70 -46 -129 -61 -248 -4 -27 -10 -48 -15 -48 -12 0 -11 85 0 124 5
17 14 56 21 86 22 109 30 129 129 315 34 64 141 187 141 161z m-690 -75 c0
-41 -4 -51 -25 -65 -41 -27 -53 -21 -57 32 -5 52 3 69 35 75 46 9 47 8 47 -42z
m-113 7 c4 -7 9 -32 10 -55 3 -38 0 -44 -28 -58 -47 -25 -72 -17 -82 28 -10
43 0 61 47 82 40 17 43 17 53 3z m603 -8 c0 -14 -40 -29 -109 -40 -31 -5 -70
-12 -87 -16 -19 -3 -34 -1 -38 5 -5 7 2 11 18 11 14 0 27 4 30 9 3 5 18 11 33
14 16 3 44 10 63 15 48 13 90 14 90 2z m48 -42 c-14 -18 -29 -44 -33 -58 -4
-14 -19 -42 -31 -62 -13 -21 -24 -42 -24 -48 0 -6 -4 -18 -10 -28 -32 -59 -83
-268 -111 -457 -9 -60 -36 -150 -51 -171 -5 -7 -17 -29 -28 -50 -30 -61 -24
-6 25 236 8 41 20 100 26 130 6 30 20 83 30 117 10 34 19 67 19 73 0 6 9 30
20 52 11 23 20 48 20 55 0 7 5 13 10 13 6 0 10 7 10 16 0 14 37 91 50 104 3 3
16 25 29 50 33 61 52 83 64 71 7 -7 1 -22 -15 -43z m142 1 c0 -20 -15 -26 -25
-9 -9 15 3 43 15 35 5 -3 10 -15 10 -26z m-5525 -26 c-8 -36 -18 -45 -38 -37
-17 6 -23 44 -10 57 3 4 17 7 31 7 21 0 23 -3 17 -27z m4608 -20 c6 -57 -4
-73 -49 -73 -34 0 -34 0 -34 48 0 41 4 51 23 60 44 21 54 15 60 -35z m-2379
15 c-19 -63 -74 -168 -88 -168 -21 0 -20 12 5 44 11 14 17 31 14 37 -4 6 5 23
20 39 27 28 27 54 0 43 -8 -3 -15 0 -15 5 0 6 12 13 28 15 15 2 31 5 35 6 5 0
5 -9 1 -21z m-184 -41 c-11 -23 -20 -48 -20 -55 0 -7 -18 -40 -41 -73 -23 -35
-38 -67 -35 -77 3 -9 -3 -33 -12 -52 -14 -29 -22 -34 -44 -32 -17 2 -30 -3
-37 -15 -10 -17 -10 -17 -11 3 0 11 4 24 8 30 14 15 78 174 96 236 15 53 19
57 59 70 23 8 45 13 49 11 4 -2 -2 -22 -12 -46z m100 43 c0 -5 -9 -24 -20 -42
-11 -18 -20 -41 -20 -51 0 -18 -26 -34 -37 -23 -9 8 27 109 41 118 16 11 36
10 36 -2z m140 -6 c0 -8 -4 -12 -10 -9 -5 3 -10 10 -10 16 0 5 5 9 10 9 6 0
10 -7 10 -16z m60 6 c0 -5 -4 -10 -10 -10 -5 0 -10 -13 -10 -29 0 -17 -4 -33
-10 -36 -5 -3 -10 -17 -10 -29 0 -13 -7 -29 -16 -37 -14 -11 -15 -9 -8 27 3
21 13 51 20 66 8 15 14 31 13 35 -3 17 2 23 16 23 8 0 15 -4 15 -10z m66 -3
c7 -19 -44 -170 -63 -184 -11 -9 -14 -21 -9 -44 5 -25 3 -30 -9 -25 -17 6 -30
-10 -15 -19 5 -3 10 -22 10 -42 0 -30 -2 -34 -15 -23 -21 17 -19 80 5 135 11
26 20 57 20 70 0 21 6 44 35 133 6 16 34 15 41 -1z m174 -17 c21 -5 26 -14 31
-56 3 -27 7 -38 8 -24 3 56 12 71 40 68 25 -3 26 -5 29 -78 3 -73 -23 -444
-37 -525 l-7 -40 -58 -3 -59 -4 7 34 c3 18 13 87 21 153 9 66 20 136 25 155
10 42 30 161 30 184 0 9 -4 16 -10 16 -5 0 -10 -17 -10 -38 0 -21 -4 -42 -9
-47 -9 -9 -66 -316 -79 -417 -4 -34 -25 -57 -36 -40 -3 4 0 44 5 87 9 79 18
124 45 240 15 67 34 169 41 230 3 22 9 44 14 50 5 5 9 18 9 29 0 20 0 20 -15
0 -8 -10 -15 -38 -15 -61 0 -23 -4 -45 -10 -48 -5 -3 -10 -28 -10 -55 0 -26
-5 -50 -10 -52 -6 -2 -11 -21 -13 -43 -1 -22 -5 -43 -10 -46 -4 -3 -9 -19 -12
-35 -18 -123 -34 -187 -61 -249 l-13 -30 0 28 c-1 15 -5 33 -11 40 -5 7 -23
29 -40 49 -31 37 -31 37 -20 100 23 124 62 294 82 353 33 97 32 95 86 88 26
-3 58 -9 72 -13z m1918 -34 c4 -56 -13 -75 -66 -76 l-33 0 3 46 c3 42 7 49 38
65 19 11 39 18 45 16 5 -2 11 -25 13 -51z m-2568 25 c0 -20 -28 -91 -99 -248
-22 -50 -41 -95 -41 -100 0 -19 -56 -113 -68 -113 -25 0 -78 -44 -107 -89 -33
-51 -65 -61 -75 -23 -5 22 -6 21 -18 -8 -20 -43 -25 -42 -134 36 -86 63 -119
77 -144 63 -36 -19 -40 -62 -10 -112 40 -66 54 -80 71 -74 10 4 15 0 15 -12 0
-10 9 -26 20 -36 25 -23 25 -35 1 -35 -23 0 -98 79 -135 143 -27 46 -30 97 -6
97 6 0 10 5 10 10 0 6 -20 10 -45 10 -53 0 -57 14 -24 85 16 34 38 56 96 96
41 28 98 68 127 90 28 21 56 39 62 39 6 0 17 7 24 15 25 31 236 125 280 125
15 0 30 3 34 8 4 4 40 14 79 24 89 20 87 20 87 9z m316 -76 c-16 -32 -33 -51
-41 -44 -1 2 9 29 23 59 17 38 26 50 29 37 3 -10 -3 -34 -11 -52z m2994 55 c0
-15 -50 -60 -66 -60 -19 0 -44 11 -44 20 0 4 8 11 18 14 9 3 28 13 42 21 29
17 50 19 50 5z m-862 -42 c4 -53 -10 -73 -63 -88 -56 -16 -68 -7 -63 46 3 34
8 42 43 61 58 32 79 27 83 -19z m-1468 2 c8 -13 4 -41 -10 -75 -17 -42 -43
-101 -56 -129 -8 -16 -14 -37 -14 -48 0 -10 -4 -18 -10 -18 -11 0 -13 134 -3
230 l6 62 40 -5 c22 -3 43 -11 47 -17z m2160 -22 c-14 -5 -40 -16 -58 -24 -38
-16 -62 -18 -62 -5 0 5 28 16 63 24 74 18 91 19 57 5z m-852 -49 c3 -39 0 -47
-22 -58 -13 -7 -29 -10 -35 -7 -18 12 -13 87 7 102 31 24 47 13 50 -37z m366
24 c-16 -7 -40 -13 -54 -11 -21 3 -19 5 20 19 52 19 75 14 34 -8z m-1537 -5
c-3 -8 -6 -5 -6 6 -1 11 2 17 5 13 3 -3 4 -12 1 -19z m-972 -18 c-9 -16 -23
-30 -33 -30 -10 0 -23 -5 -30 -12 -9 -9 -12 -8 -12 4 0 18 57 68 78 68 9 0 9
-7 -3 -30z m2060 -30 c0 -44 -1 -46 -48 -69 -60 -29 -72 -20 -63 42 6 40 11
47 44 61 56 23 67 18 67 -34z m790 30 c-2 -4 -17 -10 -32 -13 -16 -3 -41 -9
-58 -13 -27 -7 -29 -6 -16 9 7 10 25 17 40 17 14 0 33 4 41 9 16 11 33 4 25
-9z m-1798 -6 c-3 -3 -12 -4 -19 -1 -8 3 -5 6 6 6 11 1 17 -2 13 -5z m1360 0
c-3 -3 -12 -4 -19 -1 -8 3 -5 6 6 6 11 1 17 -2 13 -5z m-2335 -29 c3 -3 0 -20
-7 -38 -7 -18 -18 -47 -24 -64 -13 -33 -41 -46 -41 -18 0 8 10 39 23 70 20 50
34 64 49 50z m109 -10 c0 -35 -34 -125 -47 -125 -24 0 -18 39 19 118 10 22 29
26 28 7z m669 -112 l0 -128 -53 -105 c-33 -66 -59 -106 -70 -108 -16 -3 -18 2
-12 60 12 113 24 177 39 210 8 18 20 51 26 73 7 22 16 48 21 57 5 10 9 22 9
28 0 13 22 39 33 40 4 0 7 -57 7 -127z m1061 77 c-1 -25 -5 -49 -8 -53 -9 -15
-126 -98 -131 -93 -7 8 39 116 49 116 5 0 9 5 9 11 0 25 43 70 64 67 18 -3 21
-8 17 -48z m399 40 c0 -5 -10 -10 -22 -9 -22 0 -22 1 -3 9 11 5 21 9 23 9 1 1
2 -3 2 -9z m405 0 c-3 -5 -10 -10 -16 -10 -5 0 -9 5 -9 10 0 6 7 10 16 10 8 0
12 -4 9 -10z m-1645 -16 c0 -8 -5 -12 -10 -9 -6 4 -8 11 -5 16 9 14 15 11 15
-7z m1367 10 c-3 -3 -12 -4 -19 -1 -8 3 -5 6 6 6 11 1 17 -2 13 -5z m-1535
-81 c7 -9 7 -17 -2 -28 -9 -10 -9 -15 -1 -15 17 0 14 -77 -4 -84 -12 -4 -15 5
-16 44 -3 136 1 193 8 130 3 -19 9 -41 15 -47z m-942 57 c0 -14 -46 -86 -60
-95 -18 -11 -20 -1 -6 40 16 47 66 88 66 55z m40 -30 c0 -11 -4 -20 -9 -20 -5
0 -11 -9 -14 -21 -3 -12 -10 -18 -16 -15 -7 4 -4 19 7 41 19 39 32 45 32 15z
m947 -12 c-3 -8 -6 -5 -6 6 -1 11 2 17 5 13 3 -3 4 -12 1 -19z m77 13 c3 -4
-1 -17 -9 -27 -14 -18 -14 -18 -15 9 0 26 13 36 24 18z m123 -17 c-9 -9 -28 6
-21 18 4 6 10 6 17 -1 6 -6 8 -13 4 -17z m-1051 -32 c-12 -11 -18 7 -10 30 l8
23 4 -23 c2 -13 1 -26 -2 -30z m994 16 c0 -32 0 -32 -16 -10 -15 22 -12 42 7
42 5 0 9 -15 9 -32z m1043 25 c-7 -2 -19 -2 -25 0 -7 3 -2 5 12 5 14 0 19 -2
13 -5z m-50 -20 c-7 -2 -19 -2 -25 0 -7 3 -2 5 12 5 14 0 19 -2 13 -5z m-899
-83 c25 -98 38 -192 28 -202 -6 -6 -18 26 -31 89 -12 54 -26 112 -31 129 -6
17 -10 39 -10 49 0 36 29 -7 44 -65z m-224 50 c0 -5 -4 -10 -10 -10 -5 0 -10
5 -10 10 0 6 5 10 10 10 6 0 10 -4 10 -10z m80 -9 c0 -24 -18 -37 -31 -24 -13
13 -1 43 17 43 8 0 14 -9 14 -19z m187 -3 c-3 -8 -6 -5 -6 6 -1 11 2 17 5 13
3 -3 4 -12 1 -19z m161 -20 c66 -48 109 -93 116 -124 9 -34 -2 -44 -54 -54
-47 -9 -45 -11 -90 115 -12 33 -26 68 -31 78 -14 27 8 21 59 -15z m577 25
c-11 -3 -22 -9 -25 -13 -3 -4 -21 -18 -41 -31 -20 -13 -62 -41 -93 -62 -32
-21 -65 -51 -74 -68 -30 -54 -38 -63 -56 -56 -15 6 -15 9 -2 35 14 27 85 82
106 82 5 0 10 5 10 10 0 16 150 110 174 109 20 -1 20 -2 1 -6z m-855 -28 c0
-18 -4 -23 -15 -19 -8 4 -15 15 -15 25 0 10 7 19 15 19 9 0 15 -9 15 -25z
m198 -2 c6 -15 12 -32 12 -38 0 -6 8 -29 19 -51 27 -57 36 -104 19 -104 -9 0
-26 37 -46 100 -18 55 -32 104 -32 110 0 19 15 10 28 -17z m-332 -131 c4 -87
2 -132 -5 -136 -17 -11 -22 32 -17 154 5 133 4 125 11 118 3 -3 8 -64 11 -136z
m-758 75 c-5 -17 -13 -46 -17 -62 -11 -42 -30 -75 -42 -75 -13 0 -3 90 12 105
5 5 9 16 9 24 0 18 30 52 41 46 4 -3 3 -20 -3 -38z m832 18 c0 -14 4 -33 10
-43 15 -27 42 -151 35 -162 -3 -6 -17 -10 -29 -10 -21 0 -24 6 -31 58 -4 31
-9 73 -10 93 -1 20 -5 41 -9 47 -9 15 4 42 20 42 8 0 14 -10 14 -25z m1743 8
c-7 -2 -19 -2 -25 0 -7 3 -2 5 12 5 14 0 19 -2 13 -5z m-2659 -74 c-17 -57
-30 -79 -46 -79 -10 0 -7 30 7 95 8 33 34 60 47 47 4 -4 1 -33 -8 -63z m1003
15 c20 -76 27 -144 16 -144 -14 0 -53 132 -53 178 0 41 24 18 37 -34z m-1217
29 c0 -38 -28 -108 -44 -111 -9 -2 -16 0 -16 5 1 17 25 99 33 111 12 18 27 15
27 -5z m73 9 c8 -11 -16 -97 -32 -116 -26 -31 -34 -1 -16 63 16 55 35 76 48
53z m70 -24 c-9 -50 -31 -98 -44 -98 -13 0 -6 55 13 103 15 40 39 36 31 -5z
m1842 15 c-4 -10 -11 -32 -16 -49 -10 -33 -68 -100 -112 -129 -24 -16 -176
-58 -342 -95 -44 -9 -98 -23 -120 -29 -111 -34 -235 -60 -275 -60 -42 1 -38 2
45 25 50 13 146 37 215 53 69 17 177 43 240 60 141 37 148 38 184 46 34 7 119
93 137 138 15 36 30 56 43 57 4 0 5 -8 1 -17z m838 10 c-7 -2 -21 -2 -30 0
-10 3 -4 5 12 5 17 0 24 -2 18 -5z m-2897 -54 c-9 -18 -16 -39 -16 -47 0 -28
-13 -2 -17 32 -2 22 2 40 13 51 26 26 39 3 20 -36z m-69 14 c-18 -43 -57 -61
-57 -26 0 23 29 53 51 53 16 0 17 -3 6 -27z m2906 20 c-7 -2 -19 -2 -25 0 -7
3 -2 5 12 5 14 0 19 -2 13 -5z m-68 -20 c-11 -3 -25 -9 -31 -14 -9 -7 -99 -38
-111 -39 -2 0 -3 5 -3 10 0 6 9 10 19 10 11 0 23 5 26 10 3 6 17 10 30 10 13
0 27 5 30 10 3 6 18 9 33 9 21 -1 23 -2 7 -6z m-1690 -130 c-6 -58 -8 -63 -31
-63 -13 0 -24 4 -24 9 0 18 38 160 46 173 13 19 17 -43 9 -119z m-65 20 c-7
-37 -14 -74 -16 -81 -5 -17 -33 -27 -45 -15 -11 11 1 45 38 105 13 21 23 45
23 54 0 10 3 15 6 11 4 -3 1 -37 -6 -74z m-1960 51 c0 -2 -9 -4 -20 -4 -11 0
-20 4 -20 9 0 5 9 7 20 4 11 -3 20 -7 20 -9z m2398 -32 c2 -12 -1 -22 -7 -22
-6 0 -11 4 -11 9 0 5 -3 17 -7 27 -4 12 -2 15 8 12 8 -2 15 -14 17 -26z m352
9 c0 -10 -7 -25 -16 -32 -20 -17 -81 -38 -89 -31 -5 5 -7 52 -2 52 1 0 20 7
42 15 54 19 65 18 65 -4z m705 -11 c-46 -21 -65 -24 -65 -10 0 6 9 10 19 10
11 0 23 5 26 10 3 6 18 10 33 9 25 0 24 -2 -13 -19z m-837 -37 c-5 -25 -28
-28 -28 -4 0 12 6 21 16 21 9 0 14 -7 12 -17z m749 11 c-3 -3 -12 -4 -19 -1
-8 3 -5 6 6 6 11 1 17 -2 13 -5z m-809 -26 c-2 -12 -8 -23 -14 -25 -17 -6 -27
29 -12 39 22 13 30 9 26 -14z m727 -8 c-40 -18 -85 -27 -71 -13 11 11 68 31
91 31 12 0 5 -7 -20 -18z m175 12 c0 -9 -60 -36 -66 -29 -3 3 7 12 23 20 33
18 43 20 43 9z m380 -1 c-8 -5 -58 -23 -110 -40 -52 -18 -104 -36 -115 -41
-11 -5 -40 -14 -65 -20 -25 -7 -62 -16 -83 -22 -58 -17 -55 -2 5 17 29 10 58
21 63 24 6 4 35 13 65 20 82 19 132 35 190 59 32 13 72 16 50 3z m-1353 -21
c1 -11 0 -20 -2 -20 -2 0 -9 9 -15 20 -8 15 -8 20 3 20 7 0 13 -9 14 -20z
m-60 -22 c-3 -8 -6 -5 -6 6 -1 11 2 17 5 13 3 -3 4 -12 1 -19z m-87 -4 c0 -8
-4 -12 -10 -9 -5 3 -10 10 -10 16 0 5 5 9 10 9 6 0 10 -7 10 -16z m-47 -19 c4
-8 2 -17 -3 -20 -6 -4 -10 3 -10 14 0 25 6 27 13 6z m803 -5 c-22 -11 -47 -20
-56 -20 -9 0 -21 -5 -27 -11 -6 -6 -21 -9 -34 -7 -17 3 -20 6 -9 10 8 3 24 10
35 14 82 31 146 41 91 14z m-906 -10 c0 -11 -7 -20 -15 -20 -8 0 -15 9 -15 20
0 11 7 20 15 20 8 0 15 -9 15 -20z m-1725 0 c3 -5 -1 -10 -9 -10 -9 0 -16 5
-16 10 0 6 4 10 9 10 6 0 13 -4 16 -10z m405 0 c0 -5 -5 -10 -11 -10 -5 0 -7
5 -4 10 3 6 8 10 11 10 2 0 4 -4 4 -10z m60 -7 c0 -10 -7 -27 -15 -37 -14 -19
-15 -18 -15 10 0 17 3 34 7 37 12 12 23 7 23 -10z m90 0 c0 -10 -3 -28 -6 -41
-9 -31 -34 -10 -34 29 0 22 5 29 20 29 12 0 20 -7 20 -17z m363 -4 c3 -13 1
-19 -6 -16 -15 5 -22 37 -9 37 5 0 12 -9 15 -21z m-303 -19 c0 -11 -4 -20 -10
-20 -5 0 -10 9 -10 20 0 11 5 20 10 20 6 0 10 -9 10 -20z m71 -23 c-8 -8 -11
-5 -11 9 0 27 14 41 18 19 2 -9 -1 -22 -7 -28z m835 16 c-10 -10 -19 5 -10 18
6 11 8 11 12 0 2 -7 1 -15 -2 -18z m81 -5 c-3 -7 -5 -2 -5 12 0 14 2 19 5 13
2 -7 2 -19 0 -25z m-827 13 c0 -5 -6 -14 -14 -20 -12 -10 -13 -8 -9 8 5 21 23
30 23 12z m690 -6 c0 -8 -4 -15 -10 -15 -5 0 -10 7 -10 15 0 8 5 15 10 15 6 0
10 -7 10 -15z m983 -12 c-7 -2 -19 -2 -25 0 -7 3 -2 5 12 5 14 0 19 -2 13 -5z
m-1513 -34 c0 -17 -4 -28 -10 -24 -5 3 -10 17 -10 31 0 13 5 24 10 24 6 0 10
-14 10 -31z m174 22 c3 -5 -1 -14 -9 -21 -13 -10 -15 -9 -15 9 0 21 14 28 24
12z m56 -5 c0 -8 -4 -18 -10 -21 -5 -3 -10 3 -10 14 0 12 5 21 10 21 6 0 10
-6 10 -14z m1235 4 c-3 -5 -18 -10 -33 -10 -21 0 -24 2 -12 10 20 13 53 13 45
0z m535 1 c0 -8 -11 -11 -85 -25 l-30 -6 32 12 c17 7 35 16 39 21 10 10 44 9
44 -2z m-1900 -22 c0 -11 -4 -17 -10 -14 -5 3 -10 13 -10 21 0 8 5 14 10 14 6
0 10 -9 10 -21z m1295 1 c-3 -5 -16 -10 -28 -9 -21 0 -21 1 -2 9 28 12 37 12
30 0z m-3268 -26 c-3 -3 -12 -4 -19 -1 -8 3 -5 6 6 6 11 1 17 -2 13 -5z m3170
0 c-3 -3 -12 -4 -19 -1 -8 3 -5 6 6 6 11 1 17 -2 13 -5z m556 -1 c-7 -2 -21
-2 -30 0 -10 3 -4 5 12 5 17 0 24 -2 18 -5z m-1167 -12 c-7 -11 -67 -21 -156
-26 -63 -4 -62 -3 30 15 113 21 133 23 126 11z m1109 -1 c-3 -5 -18 -10 -33
-9 -24 0 -25 1 -7 9 28 12 47 12 40 0z m695 1 c0 -5 -15 -16 -32 -24 -29 -13
-152 -70 -213 -97 -49 -22 -147 -51 -152 -46 -4 3 1 6 10 6 25 0 20 28 -5 33
-17 3 -15 5 9 6 17 0 34 5 37 10 3 5 16 11 28 14 34 8 260 87 278 97 20 12 40
12 40 1z m-1277 -8 c-7 -2 -21 -2 -30 0 -10 3 -4 5 12 5 17 0 24 -2 18 -5z
m517 -13 c0 -5 -15 -10 -32 -9 -28 0 -30 2 -13 9 28 12 45 12 45 0z m-3067 -7
c-13 -2 -33 -2 -45 0 -13 2 -3 4 22 4 25 0 35 -2 23 -4z m2480 0 c-7 -2 -21
-2 -30 0 -10 3 -4 5 12 5 17 0 24 -2 18 -5z m-755 -20 c-21 -2 -57 -2 -80 0
-24 2 -7 4 37 4 44 0 63 -2 43 -4z m-1410 -20 c-10 -2 -28 -2 -40 0 -13 2 -5
4 17 4 22 1 32 -1 23 -4z m1179 0 c-20 -2 -52 -2 -70 0 -17 2 0 4 38 4 39 0
53 -2 32 -4z m780 1 c-3 -3 -12 -4 -19 -1 -8 3 -5 6 6 6 11 1 17 -2 13 -5z
m606 -1 c-7 -2 -21 -2 -30 0 -10 3 -4 5 12 5 17 0 24 -2 18 -5z m-2373 -17 c8
-2 -16 -4 -55 -5 -38 0 -65 3 -58 7 11 7 77 6 113 -2z m2325 4 c4 -6 -9 -10
-32 -9 -34 1 -35 2 -13 9 35 11 38 11 45 0z m-1507 -7 c-21 -2 -55 -2 -75 0
-21 2 -4 4 37 4 41 0 58 -2 38 -4z m859 1 c-3 -3 -12 -4 -19 -1 -8 3 -5 6 6 6
11 1 17 -2 13 -5z m-1254 -21 c-46 -2 -120 -2 -165 0 -46 1 -9 3 82 3 91 0
128 -2 83 -3z m1810 0 c-7 -2 -21 -2 -30 0 -10 3 -4 5 12 5 17 0 24 -2 18 -5z
m1274 -35 c-3 -7 -5 -2 -5 12 0 14 2 19 5 13 2 -7 2 -19 0 -25z m-1369 15
c-10 -2 -26 -2 -35 0 -10 3 -2 5 17 5 19 0 27 -2 18 -5z m-2681 -19 c-3 -3
-12 -4 -19 -1 -8 3 -5 6 6 6 11 1 17 -2 13 -5z m1876 -1 c-13 -2 -35 -2 -50 0
-16 2 -5 4 22 4 28 0 40 -2 28 -4z m725 0 c-10 -2 -28 -2 -40 0 -13 2 -5 4 17
4 22 1 32 -1 23 -4z m815 0 c-7 -2 -21 -2 -30 0 -10 3 -4 5 12 5 17 0 24 -2
18 -5z m-1675 -20 c-10 -2 -26 -2 -35 0 -10 3 -2 5 17 5 19 0 27 -2 18 -5z
m780 0 c-10 -2 -28 -2 -40 0 -13 2 -5 4 17 4 22 1 32 -1 23 -4z m1509 -25 c-3
-8 -6 -5 -6 6 -1 11 2 17 5 13 3 -3 4 -12 1 -19z m-2449 5 c-10 -2 -26 -2 -35
0 -10 3 -2 5 17 5 19 0 27 -2 18 -5z m820 0 c-10 -2 -26 -2 -35 0 -10 3 -2 5
17 5 19 0 27 -2 18 -5z m779 1 c-3 -3 -12 -4 -19 -1 -8 3 -5 6 6 6 11 1 17 -2
13 -5z m-1749 -21 c-10 -2 -28 -2 -40 0 -13 2 -5 4 17 4 22 1 32 -1 23 -4z
m870 0 c-10 -2 -28 -2 -40 0 -13 2 -5 4 17 4 22 1 32 -1 23 -4z m799 1 c-3 -3
-12 -4 -19 -1 -8 3 -5 6 6 6 11 1 17 -2 13 -5z m-1899 -21 c-27 -2 -69 -2 -95
0 -27 2 -5 3 47 3 52 0 74 -1 48 -3z m1052 -153 c-12 -8 -13 -12 -2 -19 20
-12 -129 -38 -293 -51 -77 -6 -187 -15 -245 -21 -95 -9 -186 -6 -198 6 -3 3
17 5 44 5 30 0 59 7 73 17 23 16 53 20 321 44 106 9 242 22 300 27 13 2 13 1
0 -8z m-3000 -254 c139 -70 230 -126 206 -126 -17 0 -129 48 -222 95 -60 30
-116 55 -126 55 -12 0 -15 5 -11 16 9 23 51 12 153 -40z m815 24 c15 -7 16 -9
4 -9 -9 -1 -22 -8 -29 -16 -7 -9 -21 -13 -34 -9 -22 5 -97 -12 -175 -40 -24
-9 -53 -15 -65 -15 -20 1 -20 2 -1 6 11 3 25 9 31 14 16 13 206 77 229 77 11
1 29 -3 40 -8z m3220 -45 l60 -26 -45 5 c-25 3 -54 6 -65 8 -14 2 -19 -2 -17
-14 3 -20 -18 -24 -35 -7 -11 11 -136 8 -258 -6 l-50 -6 66 25 c51 18 75 22
106 16 52 -9 160 -1 141 11 -7 5 -42 9 -78 10 -57 1 -60 3 -30 10 57 13 141 2
205 -26z m-1725 10 c11 -13 6 -15 -36 -15 -26 0 -61 -4 -78 -10 -17 -5 -74
-23 -127 -40 -131 -41 -164 -39 -74 5 39 19 75 35 80 35 6 0 28 9 50 20 49 25
166 28 185 5z m-2385 -35 c-8 -13 -35 0 -35 16 0 12 4 12 20 4 11 -6 18 -15
15 -20z m811 -5 c-16 -9 -34 -14 -40 -11 -6 2 -3 5 7 5 9 1 17 6 17 11 0 6 10
10 23 10 20 0 19 -2 -7 -15z m1736 -10 c20 -17 24 -25 14 -25 -9 0 -16 5 -16
10 0 18 -29 11 -87 -20 -31 -16 -65 -29 -77 -29 -17 1 -18 2 -3 6 9 2 17 8 17
13 0 4 13 13 29 20 16 6 37 20 47 31 23 25 40 24 76 -6z m-922 6 c22 -6 20 -8
-19 -14 -90 -15 3 -39 183 -46 98 -4 141 -10 144 -18 2 -9 -7 -13 -27 -13 -37
0 -49 -16 -19 -26 13 -3 35 -15 50 -25 14 -11 35 -19 45 -19 10 0 23 -4 29 -9
5 -6 29 -11 54 -14 l45 -4 -49 -1 c-32 -1 -80 8 -135 27 -47 16 -110 34 -138
40 -29 6 -77 16 -105 22 -29 6 -72 20 -96 30 -23 10 -60 19 -81 19 -51 0 -101
10 -101 21 0 5 10 9 23 9 12 0 42 7 67 14 49 16 91 18 130 7z m2587 -7 c-3 -3
-12 -4 -19 -1 -8 3 -5 6 6 6 11 1 17 -2 13 -5z m-3654 -21 c-7 -2 -19 -2 -25
0 -7 3 -2 5 12 5 14 0 19 -2 13 -5z m3140 0 c-7 -2 -21 -2 -30 0 -10 3 -4 5
12 5 17 0 24 -2 18 -5z m-3200 -20 c-7 -2 -19 -2 -25 0 -7 3 -2 5 12 5 14 0
19 -2 13 -5z m3056 -17 c-8 -8 -129 -12 -129 -5 0 4 21 11 48 14 26 3 54 7 62
8 14 3 27 -10 19 -17z m84 17 c-7 -2 -21 -2 -30 0 -10 3 -4 5 12 5 17 0 24 -2
18 -5z m380 0 c-7 -2 -19 -2 -25 0 -7 3 -2 5 12 5 14 0 19 -2 13 -5z m304 1
c-3 -3 -12 -4 -19 -1 -8 3 -5 6 6 6 11 1 17 -2 13 -5z m-3874 -21 c-7 -2 -21
-2 -30 0 -10 3 -4 5 12 5 17 0 24 -2 18 -5z m2123 -3 c16 -7 31 -7 36 -2 6 6
26 1 51 -11 37 -17 55 -19 158 -14 64 3 122 1 129 -3 9 -6 7 -9 -10 -12 -31
-4 -37 -25 -8 -31 73 -13 -253 12 -392 31 l-55 7 25 23 c27 25 29 26 66 12z
m1512 3 c-10 -2 -28 -2 -40 0 -13 2 -5 4 17 4 22 1 32 -1 23 -4z m285 0 c-7
-2 -19 -2 -25 0 -7 3 -2 5 12 5 14 0 19 -2 13 -5z m-1367 -28 c-25 -19 -36
-19 -36 0 0 10 10 15 28 15 26 -1 26 -1 8 -15z m-621 -18 c-33 -22 -83 -39
-97 -34 -7 3 -3 6 10 6 12 1 22 4 22 9 0 10 40 29 65 31 19 1 19 1 0 -12z
m1212 7 c-3 -3 -12 -4 -19 -1 -8 3 -5 6 6 6 11 1 17 -2 13 -5z m-2194 -21 c-7
-2 -19 -2 -25 0 -7 3 -2 5 12 5 14 0 19 -2 13 -5z m835 -40 c-15 -2 -42 -2
-60 0 -18 2 -6 4 27 4 33 0 48 -2 33 -4z m-1731 -19 c-3 -3 -12 -4 -19 -1 -8
3 -5 6 6 6 11 1 17 -2 13 -5z m2146 -74 c71 -62 212 -120 295 -120 20 0 31 -4
27 -10 -11 -17 -119 -11 -186 11 -68 22 -105 44 -157 93 -22 21 -35 27 -43 19
-7 -7 -6 -15 4 -25 48 -48 77 -146 77 -265 0 -108 15 -238 32 -288 22 -62 52
-125 60 -125 4 0 8 -5 8 -11 0 -6 14 -24 30 -41 17 -16 30 -39 30 -49 0 -19
-1 -19 -16 -5 -8 9 -19 16 -24 16 -4 0 -27 19 -50 42 -33 34 -43 39 -51 27 -5
-8 -9 -22 -9 -32 0 -11 -6 -31 -14 -45 -21 -42 -36 -95 -36 -131 0 -19 -4 -30
-10 -26 -5 3 -10 15 -10 26 0 16 -5 19 -20 14 -18 -6 -20 -2 -22 37 -2 85 0
94 52 223 14 33 20 151 9 162 -6 6 -14 76 -19 157 -11 180 -22 208 -100 248
-39 21 -68 28 -114 29 l-61 1 50 13 c28 7 68 11 90 8 52 -5 71 7 56 35 -22 40
-14 52 33 52 36 0 50 -6 89 -40z m-747 -65 c71 -31 66 -41 -7 -15 -61 23 -128
25 -192 8 -24 -6 -52 -8 -63 -3 -35 14 34 34 123 35 67 0 93 -5 139 -25z
m1368 13 c73 -20 62 -28 -39 -28 -54 0 -95 3 -91 8 6 5 47 21 85 31 2 1 22 -4
45 -11z m-994 -34 c0 -3 -25 -16 -56 -30 -69 -30 -171 -34 -222 -9 -45 23 -33
30 23 16 35 -9 67 -9 133 0 48 7 94 16 102 20 18 10 20 10 20 3z m1258 -1
c-16 -2 -40 -2 -55 0 -16 2 -3 4 27 4 30 0 43 -2 28 -4z m-1993 -113 c3 -5 15
-10 25 -10 25 0 74 -19 67 -26 -5 -5 -57 8 -102 27 -11 5 -36 10 -55 12 -29 3
-27 4 12 5 26 1 50 -2 53 -8z m2222 -16 c-3 -3 -12 -4 -19 -1 -8 3 -5 6 6 6
11 1 17 -2 13 -5z m308 -14 c-3 -5 -21 -10 -39 -10 -17 0 -37 -5 -43 -11 -6
-6 -17 -9 -25 -7 -21 7 43 37 80 38 20 0 31 -4 27 -10z m-2252 -45 c31 -13 63
-56 50 -68 -2 -3 -35 9 -71 28 -37 18 -83 40 -102 50 l-35 16 62 -6 c35 -3 78
-12 96 -20z m1546 -3 c7 -14 5 -21 -9 -29 -22 -14 -30 -7 -30 24 0 28 25 31
39 5z m-834 -56 c20 -24 40 -59 45 -77 13 -45 13 -142 0 -134 -5 3 -10 16 -10
28 -1 29 -42 113 -55 110 -5 -1 -11 -10 -13 -20 -6 -40 -35 -129 -47 -143 -7
-8 -27 -42 -45 -75 -17 -33 -38 -64 -46 -68 -8 -4 -14 -15 -14 -24 0 -8 -8
-37 -17 -63 -18 -50 -16 -65 20 -165 11 -30 68 -109 127 -175 36 -41 54 -73
64 -115 10 -38 1 -29 -32 33 -31 58 -60 96 -120 161 -84 91 -119 176 -101 246
19 74 29 120 35 157 4 20 14 45 23 55 89 101 125 181 116 254 -9 75 16 80 70
15z m-1011 -61 c37 -32 25 -32 -22 0 -20 14 -30 25 -22 25 8 0 28 -11 44 -25z
m646 3 c-19 -20 -32 -23 -108 -25 -81 -1 -83 -1 -32 7 30 4 75 15 100 23 62
20 64 20 40 -5z m-212 -5 c-10 -2 -26 -2 -35 0 -10 3 -2 5 17 5 19 0 27 -2 18
-5z m1697 -42 c-11 -4 -46 -19 -77 -34 -110 -51 -182 -69 -255 -64 -38 2 -84
9 -103 14 -28 8 -15 10 70 10 109 -1 138 5 270 57 36 14 76 25 90 25 22 -1 23
-2 5 -8z m240 -79 c-77 -71 -125 -88 -105 -36 9 23 83 64 115 64 18 0 16 -3
-10 -28z m-2162 1 c-7 -2 -19 -2 -25 0 -7 3 -2 5 12 5 14 0 19 -2 13 -5z
m2257 -27 c0 -21 -82 -85 -117 -92 -36 -7 -51 9 -31 33 22 27 100 73 125 73
13 0 23 -6 23 -14z m-1992 -245 c50 -48 62 -66 62 -90 0 -17 5 -31 10 -31 6 0
10 9 10 20 0 11 5 20 11 20 5 0 9 -8 8 -17 -2 -10 0 -31 4 -48 14 -60 23 -155
16 -155 -5 0 -11 15 -14 33 -6 31 -41 91 -137 236 -74 111 -64 121 30 32z m96
-4 c-3 -61 -3 -64 -14 -47 -13 21 -12 64 2 78 7 7 12 12 13 12 0 0 -1 -19 -1
-43z m396 -54 c0 -13 -4 -23 -8 -23 -16 0 -52 41 -52 60 0 18 1 18 30 2 19
-11 30 -25 30 -39z m-273 -30 c-3 -10 -5 -4 -5 12 0 17 2 24 5 18 2 -7 2 -21
0 -30z m473 7 c0 -5 -2 -10 -4 -10 -3 0 -8 5 -11 10 -3 6 -1 10 4 10 6 0 11
-4 11 -10z m787 -12 c-3 -8 -6 -5 -6 6 -1 11 2 17 5 13 3 -3 4 -12 1 -19z
m-264 -54 c-30 -25 -53 -31 -53 -14 0 6 8 10 19 10 12 0 26 14 37 38 17 34 19
35 22 13 3 -17 -5 -31 -25 -47z m-293 -53 c-57 -120 -116 -208 -172 -254 -23
-20 -44 -34 -46 -32 -3 3 69 98 106 140 31 34 82 121 82 139 0 9 8 29 17 43
15 23 18 24 21 9 2 -10 -2 -30 -8 -45z m275 -11 c3 -5 1 -10 -4 -10 -6 0 -11
5 -11 10 0 6 2 10 4 10 3 0 8 -4 11 -10z m-541 -16 c8 -20 -2 -147 -14 -189
-5 -16 -11 -45 -14 -63 -8 -55 -19 -52 -12 3 3 28 9 98 12 158 6 101 14 128
28 91z m-1614 -122 c0 -9 -5 -10 -19 -2 -13 6 -17 17 -14 30 5 19 6 20 19 3 7
-10 14 -24 14 -31z m2110 19 c-10 -20 -48 -51 -62 -51 -18 0 -6 30 18 49 35
28 59 28 44 2z m-1023 -53 c11 -14 33 -88 33 -109 0 -20 -56 62 -64 94 -7 29
13 39 31 15z m543 -608 c0 -5 -5 -10 -11 -10 -5 0 -7 5 -4 10 3 6 8 10 11 10
2 0 4 -4 4 -10z m-141 -252 c1 -20 6 -49 13 -63 6 -14 8 -28 5 -32 -10 -10
-47 28 -47 48 0 12 -5 16 -15 13 -19 -7 -19 12 -3 91 l12 59 17 -39 c10 -22
18 -57 18 -77z m-59 46 c0 -13 -4 -24 -10 -24 -5 0 -10 14 -10 31 0 17 4 28
10 24 6 -3 10 -17 10 -31z m112 -494 c-6 -11 -12 -27 -12 -35 0 -14 -19 -62
-58 -145 l-16 -35 -4 32 c-2 18 8 59 22 96 14 35 26 67 26 71 0 4 8 18 18 31
21 29 43 15 24 -15z"/>
<path d="M5758 6163 c7 -3 16 -2 19 1 4 3 -2 6 -13 5 -11 0 -14 -3 -6 -6z"/>
<path d="M2755 5680 c-3 -5 -1 -10 4 -10 6 0 11 5 11 10 0 6 -2 10 -4 10 -3 0
-8 -4 -11 -10z"/>
<path d="M2560 5790 c0 -16 2 -30 4 -30 2 0 6 14 8 30 3 17 1 30 -4 30 -4 0
-8 -13 -8 -30z"/>
<path d="M2542 5735 c0 -16 2 -22 5 -12 2 9 2 23 0 30 -3 6 -5 -1 -5 -18z"/>
<path d="M2508 5658 c-10 -18 -19 -44 -21 -58 -2 -14 -2 -19 0 -12 3 6 9 12
14 12 5 0 9 8 9 18 0 10 5 23 11 29 6 6 9 18 7 28 -2 11 -8 7 -20 -17z"/>
<path d="M2436 5491 c-4 -7 -5 -15 -2 -18 9 -9 19 4 14 18 -4 11 -6 11 -12 0z"/>
<path d="M3671 3789 c0 -34 2 -59 5 -56 10 10 15 117 6 117 -6 0 -10 -28 -11
-61z"/>
<path d="M3480 9285 c-16 -19 -1 -19 24 0 16 12 17 15 4 15 -8 0 -21 -7 -28
-15z"/>
<path d="M3860 9285 c0 -10 92 -121 129 -156 9 -8 22 -14 29 -11 8 2 10 -2 5
-14 -6 -16 -5 -17 8 -4 17 15 23 8 -119 145 -29 27 -52 45 -52 40z"/>
<path d="M3384 9222 c-11 -11 -26 -22 -34 -25 -13 -4 -12 -6 1 -6 8 -1 24 7
35 17 11 11 26 22 34 25 13 4 12 6 -1 6 -8 1 -24 -7 -35 -17z"/>
<path d="M3761 9204 c0 -11 3 -14 6 -6 3 7 2 16 -1 19 -3 4 -6 -2 -5 -13z"/>
<path d="M3258 9153 c6 -2 18 -2 25 0 6 3 1 5 -13 5 -14 0 -19 -2 -12 -5z"/>
<path d="M3218 9133 c7 -3 16 -2 19 1 4 3 -2 6 -13 5 -11 0 -14 -3 -6 -6z"/>
<path d="M3088 9093 c7 -3 16 -2 19 1 4 3 -2 6 -13 5 -11 0 -14 -3 -6 -6z"/>
<path d="M3816 8995 c-3 -8 -15 -15 -26 -15 -11 0 -20 -4 -20 -10 0 -13 3 -13
35 2 14 6 25 17 25 25 0 17 -6 17 -14 -2z"/>
<path d="M4444 8735 c8 -8 18 -15 22 -15 3 0 1 7 -6 15 -7 8 -17 15 -22 15 -5
0 -3 -7 6 -15z"/>
<path d="M2952 8490 c-18 -29 -15 -36 8 -15 20 18 26 35 12 35 -4 0 -13 -9
-20 -20z"/>
<path d="M2903 8422 c-13 -15 -23 -31 -23 -37 1 -13 50 43 50 56 0 13 -3 12
-27 -19z"/>
<path d="M2771 8263 c-7 -8 -11 -16 -8 -19 2 -2 10 2 17 11 17 20 9 27 -9 8z"/>
<path d="M2692 8178 c-7 -7 -12 -16 -12 -21 0 -5 7 -1 16 8 9 9 14 18 12 20
-2 3 -10 -1 -16 -7z"/>
<path d="M2634 8118 c-16 -18 -20 -26 -9 -18 31 23 48 41 43 45 -2 3 -18 -10
-34 -27z"/>
<path d="M2502 8005 c-17 -19 -1 -19 24 0 14 11 15 14 4 14 -8 0 -21 -6 -28
-14z"/>
<path d="M2638 7913 c7 -3 16 -2 19 1 4 3 -2 6 -13 5 -11 0 -14 -3 -6 -6z"/>
<path d="M2437 7674 c-4 -4 -7 -14 -7 -23 0 -11 3 -12 11 -4 6 6 10 16 7 23
-2 6 -7 8 -11 4z"/>
<path d="M2410 7619 c0 -5 5 -7 10 -4 6 3 10 8 10 11 0 2 -4 4 -10 4 -5 0 -10
-5 -10 -11z"/>
<path d="M2370 7535 c0 -8 2 -15 4 -15 2 0 6 7 10 15 3 8 1 15 -4 15 -6 0 -10
-7 -10 -15z"/>
<path d="M2290 7395 c0 -8 2 -15 4 -15 2 0 6 7 10 15 3 8 1 15 -4 15 -6 0 -10
-7 -10 -15z"/>
<path d="M2232 7290 c0 -14 2 -19 5 -12 2 6 2 18 0 25 -3 6 -5 1 -5 -13z"/>
<path d="M2091 7044 c0 -11 3 -14 6 -6 3 7 2 16 -1 19 -3 4 -6 -2 -5 -13z"/>
<path d="M2031 6944 c0 -11 3 -14 6 -6 3 7 2 16 -1 19 -3 4 -6 -2 -5 -13z"/>
<path d="M1966 6845 c-3 -8 -1 -15 4 -15 6 0 10 7 10 15 0 8 -2 15 -4 15 -2 0
-6 -7 -10 -15z"/>
<path d="M1893 6735 c-6 -14 -9 -25 -6 -25 7 0 32 33 33 43 0 16 -16 5 -27
-18z"/>
<path d="M1701 6434 c0 -11 3 -14 6 -6 3 7 2 16 -1 19 -3 4 -6 -2 -5 -13z"/>
<path d="M1581 6254 c0 -11 3 -14 6 -6 3 7 2 16 -1 19 -3 4 -6 -2 -5 -13z"/>
<path d="M1501 6134 c0 -11 3 -14 6 -6 3 7 2 16 -1 19 -3 4 -6 -2 -5 -13z"/>
<path d="M6521 6034 c0 -11 3 -14 6 -6 3 7 2 16 -1 19 -3 4 -6 -2 -5 -13z"/>
<path d="M6492 5990 c-6 -11 -12 -22 -12 -25 0 -11 20 6 30 26 14 25 -2 25
-18 -1z"/>
<path d="M6441 5904 c0 -11 3 -14 6 -6 3 7 2 16 -1 19 -3 4 -6 -2 -5 -13z"/>
<path d="M1436 5822 c-3 -6 -1 -14 5 -17 14 -9 20 -2 10 14 -6 8 -11 9 -15 3z"/>
<path d="M1463 5750 c0 -25 2 -35 4 -22 2 12 2 32 0 45 -2 12 -4 2 -4 -23z"/>
<path d="M4980 4291 c0 -6 12 -16 28 -22 15 -6 37 -19 48 -30 14 -13 32 -19
50 -17 41 4 43 33 4 53 -41 21 -130 32 -130 16z"/>
<path d="M6265 4249 c-11 -4 -35 -8 -52 -8 -54 -1 -37 -21 17 -21 36 0 52 4
57 15 7 21 2 24 -22 14z"/>
<path d="M850 4240 c0 -5 9 -10 19 -10 11 0 23 5 26 10 4 6 -5 10 -19 10 -14
0 -26 -4 -26 -10z"/>
<path d="M968 4233 c12 -2 32 -2 45 0 12 2 2 4 -23 4 -25 0 -35 -2 -22 -4z"/>
<path d="M5970 4210 c0 -13 11 -13 30 0 12 8 11 10 -7 10 -13 0 -23 -4 -23
-10z"/>
<path d="M1106 4188 c5 -7 20 -23 35 -35 15 -13 49 -43 75 -68 51 -49 79 -61
119 -51 33 8 22 26 -16 26 -34 0 -84 30 -154 94 -49 44 -74 59 -59 34z"/>
<path d="M5914 4180 c-12 -5 -32 -23 -45 -42 -13 -18 -36 -46 -51 -63 -15 -16
-25 -31 -23 -33 6 -6 65 38 65 49 0 5 19 30 41 54 23 25 40 45 38 44 -2 0 -14
-4 -25 -9z"/>
<path d="M1425 4030 c3 -5 34 -10 68 -9 44 0 56 3 42 9 -29 12 -118 12 -110 0z"/>
<path d="M1492 3989 c-46 -9 -86 -20 -90 -23 -11 -12 194 -5 248 8 108 26 -39
41 -158 15z"/>
<path d="M5405 3974 c-19 -19 -85 -156 -85 -176 0 -8 -3 -18 -7 -22 -14 -13
-33 -82 -32 -116 0 -29 5 -22 27 45 15 44 37 96 48 115 11 19 25 49 31 65 6
17 18 47 27 68 18 41 16 45 -9 21z"/>
<path d="M5251 3940 c-51 -33 -73 -67 -64 -98 11 -43 36 -25 106 76 30 42 34
52 19 52 -9 0 -37 -13 -61 -30z"/>
<path d="M1960 3946 c0 -2 16 -39 36 -82 l37 -79 13 38 c10 27 11 45 4 58 -15
27 -90 82 -90 65z"/>
<path d="M5656 3665 c-21 -32 -20 -38 5 -61 20 -18 21 -18 35 1 19 25 18 38
-5 64 l-19 21 -16 -25z"/>
<path d="M1580 3615 c0 -8 -4 -15 -10 -15 -5 0 -10 -15 -10 -33 0 -26 6 -36
25 -45 19 -9 27 -8 40 4 19 19 19 26 1 69 -15 35 -46 48 -46 20z"/>
<path d="M5260 3504 c0 -31 -11 -77 -30 -124 -17 -45 -29 -94 -30 -122 0 -45
2 -49 41 -75 31 -21 45 -24 57 -16 24 14 42 53 42 91 0 28 -66 279 -76 291 -2
2 -4 -18 -4 -45z m49 -228 c5 -12 4 -31 -2 -43 -20 -44 -37 -21 -29 39 4 39
18 41 31 4z"/>
<path d="M4900 3321 c0 -14 5 -19 15 -14 17 6 15 25 -3 31 -7 2 -12 -5 -12
-17z"/>
<path d="M3961 3014 c0 -11 3 -14 6 -6 3 7 2 16 -1 19 -3 4 -6 -2 -5 -13z"/>
<path d="M3941 2974 c0 -11 3 -14 6 -6 3 7 2 16 -1 19 -3 4 -6 -2 -5 -13z"/>
<path d="M2780 2966 c0 -9 5 -16 10 -16 6 0 10 4 10 9 0 6 -4 13 -10 16 -5 3
-10 -1 -10 -9z"/>
<path d="M3981 2898 c-1 -30 -28 -68 -47 -68 -18 0 -23 -47 -8 -76 17 -32 18
-131 3 -207 -9 -44 -9 -60 1 -72 36 -44 60 8 40 90 -11 46 -10 74 5 188 9 74
15 143 12 153 -3 14 -5 11 -6 -8z"/>
<path d="M4356 2911 c-4 -5 -2 -12 3 -15 5 -4 12 -2 15 3 4 5 2 12 -3 15 -5 4
-12 2 -15 -3z"/>
<path d="M2757 2756 c-3 -8 -3 -16 0 -19 9 -10 33 5 33 19 0 18 -26 18 -33 0z"/>
<path d="M4505 2625 c-18 -86 -20 -102 -17 -122 3 -23 27 -37 44 -27 13 8 5
133 -10 160 -9 17 -11 16 -17 -11z"/>
<path d="M2840 1101 c0 -6 13 -11 29 -11 17 0 33 -4 36 -10 3 -5 15 -10 26
-10 25 0 98 -50 123 -84 48 -66 45 -66 46 7 0 56 -3 69 -17 73 -10 3 -27 10
-38 14 -20 9 -57 15 -152 26 -36 5 -53 3 -53 -5z"/>
<path d="M5675 1100 c-4 -6 8 -10 29 -10 19 0 38 -4 41 -10 3 -5 16 -10 29
-10 38 0 102 -37 150 -87 25 -26 46 -51 46 -55 0 -4 5 -8 10 -8 6 0 10 26 10
58 0 44 -5 63 -17 74 -43 36 -282 74 -298 48z"/>
<path d="M6465 1100 c-3 -5 -21 -10 -40 -10 -19 0 -37 -4 -40 -10 -4 -6 25
-10 78 -10 69 0 93 -4 128 -22 90 -48 162 -150 209 -298 26 -81 29 -246 6
-300 -21 -51 -76 -103 -124 -117 -140 -43 -281 28 -368 184 -40 70 -48 96 -70
208 -16 82 -11 137 19 218 12 33 78 107 95 107 7 0 12 5 12 10 0 44 -151 -78
-191 -154 -42 -80 -51 -124 -47 -230 3 -85 7 -110 31 -161 28 -60 110 -155
134 -155 7 0 13 -4 13 -9 0 -5 12 -13 28 -19 15 -6 36 -14 47 -18 54 -21 152
-31 205 -22 61 11 72 15 145 49 202 96 266 389 130 592 -33 48 -138 137 -163
137 -7 0 -20 4 -30 9 -52 27 -195 41 -207 21z"/>
<path d="M110 1082 c0 -4 6 -14 13 -21 9 -9 12 -95 12 -359 0 -322 -1 -349
-19 -374 l-18 -28 198 1 c126 0 191 4 177 9 -12 5 -59 8 -104 8 -128 -2 -121
-29 -117 409 l3 363 -72 0 c-40 0 -73 -4 -73 -8z"/>
<path d="M350 1080 c0 -5 18 -10 39 -10 22 0 43 -4 46 -10 3 -5 14 -10 23 -10
27 -1 109 -66 146 -118 52 -71 76 -158 76 -276 0 -164 -45 -264 -140 -312 -41
-21 -43 -23 -17 -24 68 0 196 93 234 172 41 84 47 110 46 217 0 93 -3 113 -26
162 -28 60 -106 146 -153 168 -16 7 -37 17 -46 22 -10 5 -27 9 -37 9 -11 0
-23 5 -26 10 -3 6 -42 10 -86 10 -46 0 -79 -4 -79 -10z"/>
<path d="M940 1083 c0 -5 7 -17 15 -27 13 -17 15 -77 15 -362 0 -330 -1 -342
-21 -368 l-20 -26 100 0 101 0 -20 33 c-18 28 -20 50 -20 198 0 190 -3 184 84
173 66 -8 88 -31 125 -126 57 -149 96 -230 123 -255 27 -24 81 -34 129 -24 33
8 33 8 9 15 -30 8 -58 50 -89 131 -36 92 -81 188 -99 209 -10 10 -37 28 -62
39 l-44 20 49 16 c68 21 130 84 140 140 13 76 -1 126 -46 165 -43 37 -70 45
-166 53 -42 3 -63 1 -63 -6 0 -6 9 -11 20 -11 57 0 120 -64 141 -142 10 -38
10 -54 -1 -90 -7 -24 -20 -51 -28 -60 -27 -32 -99 -58 -163 -58 l-60 0 3 185
3 185 -77 0 c-43 0 -78 -3 -78 -7z"/>
<path d="M1640 1080 c0 -5 4 -10 8 -10 27 0 32 -62 32 -375 0 -313 -5 -375
-32 -375 -4 0 -8 -4 -8 -10 0 -6 41 -10 102 -10 l101 0 -21 23 c-21 23 -22 29
-22 371 -1 301 1 351 15 366 8 9 12 20 8 23 -11 11 -183 8 -183 -3z"/>
<path d="M1970 1083 c1 -5 7 -19 15 -33 12 -20 14 -88 15 -355 0 -312 -1 -332
-20 -362 l-20 -33 102 0 101 0 -22 23 c-20 23 -21 32 -19 153 l3 129 30 6 30
6 -30 4 -30 4 0 233 0 232 -77 0 c-43 0 -78 -3 -78 -7z"/>
<path d="M2190 1080 c0 -5 12 -10 27 -10 14 0 46 -11 69 -25 34 -20 50 -39 74
-89 33 -70 38 -120 18 -189 -16 -54 -87 -127 -123 -127 -15 0 -24 -4 -20 -10
13 -20 80 -6 150 32 96 52 150 187 111 279 -29 69 -69 105 -156 136 -42 15
-150 17 -150 3z"/>
<path d="M2745 1080 c-3 -5 -14 -10 -24 -10 -44 0 -131 -126 -131 -189 0 -37
23 -94 51 -125 25 -29 113 -80 184 -106 67 -25 158 -77 186 -106 30 -31 34
-40 34 -94 0 -54 -3 -62 -35 -95 -41 -42 -24 -46 33 -6 48 33 87 102 94 165 6
53 -16 104 -61 144 -32 28 -173 102 -194 102 -12 0 -91 39 -135 67 -53 33 -83
100 -67 149 15 45 57 94 81 94 10 0 19 5 19 10 0 6 -6 10 -14 10 -8 0 -18 -4
-21 -10z"/>
<path d="M3240 1083 c0 -5 7 -17 15 -27 22 -29 22 -693 0 -722 -8 -10 -15 -22
-15 -26 0 -5 42 -8 94 -8 l93 0 -19 38 c-16 34 -18 58 -16 203 l3 164 198 3
197 2 0 -178 c0 -166 -2 -181 -21 -206 l-20 -26 100 0 101 0 -20 32 c-19 31
-20 52 -20 369 0 279 2 338 15 355 8 10 15 22 15 27 0 4 -40 7 -90 7 -89 0
-104 -6 -75 -30 13 -11 15 -39 13 -174 l-3 -161 -195 0 -195 0 -3 148 c-2 118
1 155 13 179 8 17 15 33 15 35 0 1 -40 3 -90 3 -49 0 -90 -3 -90 -7z"/>
<path d="M4080 1085 c0 -2 9 -19 20 -37 19 -31 20 -51 20 -348 0 -296 -1 -318
-20 -355 -11 -22 -20 -41 -20 -42 0 -2 46 -3 102 -3 l101 0 -24 26 -24 26 0
350 c0 320 1 351 17 362 10 7 15 16 11 19 -7 8 -183 10 -183 2z"/>
<path d="M4400 1086 c0 -2 7 -17 15 -32 22 -43 22 -675 0 -718 -8 -15 -15 -30
-15 -32 0 -2 43 -4 95 -4 l94 0 -20 34 c-17 30 -19 49 -17 152 l3 119 35 6 35
6 -35 4 -35 4 -3 223 c-1 146 1 222 8 222 5 0 10 5 10 10 0 6 -35 10 -85 10
-47 0 -85 -2 -85 -4z"/>
<path d="M4620 1080 c0 -5 14 -10 30 -10 43 0 107 -46 137 -98 22 -37 26 -56
26 -125 1 -58 -4 -91 -16 -114 -22 -41 -86 -93 -115 -93 -13 0 -20 -4 -17 -10
16 -26 119 3 186 52 17 13 43 43 57 68 23 38 27 57 27 120 0 113 -33 154 -168
209 -35 14 -147 15 -147 1z"/>
<path d="M5560 1080 c-8 -4 -37 -18 -64 -31 -161 -77 -249 -249 -221 -435 15
-102 36 -147 105 -214 46 -45 68 -59 125 -77 117 -36 197 -45 284 -33 78 12
168 35 187 48 10 6 34 106 34 139 0 24 -17 14 -33 -20 -23 -47 -65 -92 -112
-118 -58 -33 -199 -32 -268 1 -186 88 -273 376 -174 578 40 82 124 152 182
152 14 0 25 5 25 10 0 12 -49 12 -70 0z"/>
<path d="M2584 459 c3 -34 6 -70 6 -79 0 -18 58 -51 120 -69 78 -22 163 -32
173 -22 6 6 29 11 51 11 71 0 28 13 -51 16 -46 1 -94 9 -117 19 -46 20 -127
98 -147 143 -7 17 -20 34 -28 37 -11 5 -13 -5 -7 -56z"/>
<path d="M7082 408 c-7 -7 -12 -28 -12 -48 0 -44 15 -60 55 -60 57 0 87 67 47
103 -22 20 -73 22 -90 5z"/>
</g>
</svg>
